<?xml version="1.0" encoding="iso-8859-1"?>
<!-- Uploaded to: SVG Repo, www.svgrepo.com, Generator: SVG Repo Mixer Tools -->
<!DOCTYPE svg PUBLIC "-//W3C//DTD SVG 1.1//EN" "http://www.w3.org/Graphics/SVG/1.1/DTD/svg11.dtd">
<svg height="800px" width="800px" version="1.1" id="Capa_1" xmlns="http://www.w3.org/2000/svg" xmlns:xlink="http://www.w3.org/1999/xlink" 
	 viewBox="0 0 512 512" xml:space="preserve">
<g>
	<circle style="fill:#FFFFFF;" cx="168.007" cy="367.999" r="15.994"/>
	<path style="fill:#003B54;" d="M496,344H264v-24c0-26.468,21.535-48,48.004-48h167.997c8.836,0,16-7.165,16-16.001
		c0-21.746-2.941-42.999-8.525-63.999H496c8.836,0,16-7.164,16-16s-7.164-16-16-16h-19.543c-13.377-32-33.277-60.767-58.807-84.743
		C367.182,27.867,301.238,4.17,232.099,8.505C107.898,16.31,8.338,115.855,0.51,240.048
		c-4.359,69.202,19.343,135.107,66.733,185.583c46.765,49.804,112.646,78.366,180.762,78.366c6.498,0,12.066-3.891,14.57-9.457
		l7.437,5.951c2.836,2.269,6.359,3.509,9.992,3.509h167.997C483.29,504,512,475.286,512,439.998v-79.999
		C512,351.164,504.836,344,496,344z M232,471.396c-54-4.043-104.37-28.199-141.432-67.667
		c-41.28-43.968-61.919-101.381-58.123-161.665C39.258,133.918,125.952,47.24,234.098,40.443c4.703-0.297,9.383-0.441,14.047-0.441
		c55.108,0,107.076,20.521,147.599,58.579C414.613,116.303,429.935,137,441.279,160H304.004C220.193,160,152,228.19,152,312v10.801
		c-19,6.609-31.996,24.347-31.996,45.198c0,25.167,19.477,45.831,44.147,47.804L232,470.083V471.396z M184.006,367.999
		c0,8.824-7.18,16-16,16c-8.82,0-16-7.176-16-16c0-8.824,7.179-16,16-16C176.827,352,184.006,359.175,184.006,367.999z M232,429.109
		l-31.899-25.523c7.853-7.09,13.346-16.587,15.182-27.587H232V429.109z M232,320v24h-22.489C203.832,334,195,326.637,184,322.801
		V312C184,245.834,237.833,192,304.004,192h150.171c4.855,16,7.99,32,9.225,48H312.004C267.895,240,232,275.888,232,320z M320,408
		h-15.996c-8.836,0-16,7.164-16,16c0,8.836,7.164,16,16,16H320v32h-34.387L264,454.709V376h56V408z M400,472h-48v-32h48V472z
		 M400,408h-48v-32h48V408z M448.001,472H432v-32h48C480.001,458,465.649,472,448.001,472z M480,408h-48v-32h48V408z"/>
	<g>
		<path style="fill:#F69348;" d="M32.446,242.064c-3.797,60.284,16.842,117.697,58.123,161.665
			C127.63,443.197,178,467.353,232,471.396v-1.313l-67.849-54.28c-24.669-1.973-44.147-22.636-44.147-47.804
			c0-20.851,12.996-38.589,31.996-45.198V312c0-83.811,68.193-152,152.004-152h137.275c-11.344-23-26.665-43.696-45.534-61.419
			c-40.523-38.058-92.491-58.579-147.599-58.579c-4.664,0-9.344,0.145-14.047,0.441C125.952,47.24,39.258,133.918,32.446,242.064z"
			/>
		<path style="fill:#F69348;" d="M232,320c0-44.113,35.895-80,80.004-80h151.396c-1.235-16-4.369-32-9.225-48H304.004
			C237.834,192,184,245.834,184,312v10.801C195,326.637,203.832,334,209.512,344H232V320z"/>
		<path style="fill:#F69348;" d="M232,376h-16.717c-1.836,11-7.329,20.497-15.182,27.587L232,429.109V376z"/>
	</g>
</g>
</svg>